<?xml version="1.0" encoding="UTF-8" standalone="no"?><svg id="Layer_1" data-name="Layer 1" xmlns="http://www.w3.org/2000/svg" viewBox="0 0 115 35.89"><defs><style>.cls-1{fill:#65cccc;}.cls-2{fill:#d8eeeb;}</style></defs><path class="cls-1" d="M8.53,11H0V24.66H8.53v8.63L18,35.89V0L8.53,2.66Zm7.35,6c.33,0,.6.41.6.92s-.27.92-.6.92-.59-.41-.59-.92S15.56,17,15.88,17Z"/><path class="cls-1" d="M30.66,11H22.22V24.66h8.44Z"/><path class="cls-2" d="M39.53,11.6h5.73c4.27,0,6.61,2.78,6.61,6.12a6.36,6.36,0,0,1-6.68,6.56H39.53ZM42.6,21.9h2.19c2.48,0,3.82-1.4,3.82-4.09,0-2.35-1.23-3.81-3.78-3.84H42.6Z"/><path class="cls-2" d="M54,17.51c0-.84,0-1.69,0-2.53h2.88c0,.33.08,1.36.08,1.86a3.51,3.51,0,0,1,3.59-2.1v2.68c-2.1,0-3.59.81-3.59,3.46v3.4H54Z"/><path class="cls-2" d="M60.94,24.28V20.52h3.39v3.76Z"/><path class="cls-2" d="M70.29,21.41l-1.11,2.87H66L71.13,11.6h3.94l5.37,12.68H77.11l-1.17-2.87Zm4.79-2.47C73.9,16,73.32,14.55,73,13.58h0c-.29.95-1,2.88-1.91,5.36Z"/><path class="cls-2" d="M82,10.88H85v2.35H82ZM82,15H85v9.3H82Z"/></svg>